#!OML:ASF H:\Terrain\Patient Classification 1\Walking\liu\liu.ASF
:FULLY-SPECIFIED
:DEGREES
424
root 10.1962 16.8495 23.8637 7.88244 0.264051 -3.14326
lowerback -7.31864 2.58572 0.0838581
upperback -2.97258 3.41095 1.65271
thorax 0.932489 1.71498 1.92307
lowerneck -17.7894 -6.59238 -14.7452
upperneck 22.2772 -8.6707 14.043
head 11.5033 -3.60165 6.35312
rclavicle -5.45726e-015 -8.94531e-015
rhumerus -39.8408 8.7885 -89.0408
rradius 32.2376
rwrist -13.1497
rhand -26.0805 -31.6718
rfingers 7.12502
rthumb 0.468037 -61.651
lclavicle -5.45726e-015 -8.94531e-015
lhumerus -50.791 -5.11963 90.6044
lradius 21.1043
lwrist -2.52527
lhand -5.40709 -21.5794
lfingers 7.12502
lthumb 20.4022 7.3688
rfemur 17.4539 1.4638 25.1972
rtibia 16.1428
rfoot 11.3969 4.97073
rtoes -13.8568
lfemur -42.1684 1.49728 -20.4304
ltibia 35.2559
lfoot -1.17498 7.77438
ltoes 4.02973
425
root 10.2304 16.8782 24.0272 7.85298 -0.00890233 -2.61602
lowerback -7.51061 2.66896 -0.224516
upperback -2.95615 3.54345 1.46411
thorax 1.04462 1.78111 1.92235
lowerneck -17.6024 -6.59326 -14.7863
upperneck 22.1872 -8.64001 13.9116
head 11.4217 -3.61279 6.31068
rclavicle 2.09811e-014 -2.98177e-015
rhumerus -40.3997 8.31502 -88.9612
rradius 31.7944
rwrist -12.9274
rhand -26.1172 -30.9642
rfingers 7.12502
rthumb 0.432527 -60.9435
lclavicle 2.09811e-014 -2.98177e-015
lhumerus -49.9995 -4.9638 90.3249
lradius 20.7261
lwrist -2.84659
lhand -5.01046 -21.2969
lfingers 7.12502
lthumb 20.7834 7.61006
rfemur 15.5872 0.845948 24.1079
rtibia 20.2187
rfoot 11.8965 5.98617
rtoes -16.2024
lfemur -41.326 1.53688 -21.1206
ltibia 35.083
lfoot -1.72804 7.86217
ltoes 2.21619
426
root 10.266 16.9036 24.1906 7.86053 -0.365383 -2.14079
lowerback -7.89081 2.71788 -0.54028
upperback -2.37542 3.62637 1.33895
thorax 1.83956 1.81277 2.01753
lowerneck -18.9943 -6.76545 -14.7421
upperneck 22.2317 -8.65671 13.7329
head 11.7057 -3.58446 6.21934
rclavicle -4.39252e-014 -1.19271e-014
rhumerus -39.7156 8.27766 -88.7939
rradius 31.2092
rwrist -13.0645
rhand -26.6618 -28.9501
rfingers 7.12502
rthumb -0.0934769 -58.9299
lclavicle -4.39252e-014 -1.19271e-014
lhumerus -48.0846 -4.52131 89.9353
lradius 20.3502
lwrist -3.3416
lhand -5.67511 -21.4923
lfingers 7.12502
lthumb 20.1447 7.4833
rfemur 13.8686 0.462934 23.0968
rtibia 23.9936
rfoot 12.8293 6.13043
rtoes -14.7658
lfemur -40.5496 1.79749 -21.8339
ltibia 34.9338
lfoot -2.26515 7.77154
ltoes 2.75499
427
root 10.2962 16.9344 24.3384 7.8865 -0.70072 -1.74747
lowerback -7.88079 2.67751 -0.872319
upperback -2.31164 3.59992 1.26157
thorax 1.88527 1.79837 2.12238
lowerneck -19.105 -6.71579 -14.8047
upperneck 22.0409 -8.53618 13.7591
head 11.6388 -3.52834 6.25251
rclavicle -4.3443e-014 2.5842e-015
rhumerus -40.0329 8.50823 -88.9495
rradius 31.0002
rwrist -13.1469
rhand -26.2866 -29.7417
rfingers 7.12502
rthumb 0.268929 -59.7213
lclavicle -4.3443e-014 2.5842e-015
lhumerus -47.1228 -3.8407 89.4726
lradius 19.9687
lwrist -4.05167
lhand -7.1505 -22.3095
lfingers 7.12502
lthumb 18.7261 6.80914
rfemur 12.1345 0.237285 22.2678
rtibia 27.5756
rfoot 13.6249 6.59772
rtoes -15.032
lfemur -39.8618 2.06285 -22.4164
ltibia 34.8114
lfoot -2.83409 7.66656
ltoes 4.958
428
root 10.3193 16.9649 24.4776 7.97015 -0.962708 -1.60989
lowerback -7.65607 2.65858 -0.950797
upperback -2.60367 3.58314 1.19124
thorax 1.46003 1.79655 2.06986
lowerneck -18.8386 -6.56153 -14.4891
upperneck 22.1774 -8.35716 13.3657
head 11.5693 -3.47502 6.08094
rclavicle 1.49259e-014 -1.98785e-016
rhumerus -40.8487 8.74691 -89.3595
rradius 30.6908
rwrist -13.343
rhand -26.2549 -30.9894
rfingers 7.12502
rthumb 0.299557 -60.9689
lclavicle 1.49259e-014 -1.98785e-016
lhumerus -46.7978 -3.49656 89.1008
lradius 19.67
lwrist -4.59098
lhand -8.03481 -22.9578
lfingers 7.12502
lthumb 17.8753 6.24067
rfemur 10.3741 0.163122 21.8214
rtibia 30.9689
rfoot 13.435 8.08864
rtoes -18.4721
lfemur -39.2881 2.36065 -22.6884
ltibia 34.6661
lfoot -3.40784 7.56197
ltoes 5.25452
